<?xml version="1.0" encoding="UTF-8" standalone="no"?>
<!-- Created with Inkscape (http://www.inkscape.org/) -->

<svg
   version="1.1"
   id="svg2106"
   width="409.84448"
   height="131.17267"
   viewBox="0 0 409.84448 131.17267"
   sodipodi:docname="frechi.svg"
   inkscape:version="1.1 (c68e22c387, 2021-05-23)"
   inkscape:export-filename="C:\Users\Sacramentix\Desktop\projects\Frechi\frechi\public\frechiCard.png"
   inkscape:export-xdpi="379.461"
   inkscape:export-ydpi="379.461"
   xmlns:inkscape="http://www.inkscape.org/namespaces/inkscape"
   xmlns:sodipodi="http://sodipodi.sourceforge.net/DTD/sodipodi-0.dtd"
   xmlns="http://www.w3.org/2000/svg"
   xmlns:svg="http://www.w3.org/2000/svg">
  <defs
     id="defs2110" />
  <sodipodi:namedview
     id="namedview2108"
     pagecolor="#505050"
     bordercolor="#ffffff"
     borderopacity="1"
     inkscape:pageshadow="0"
     inkscape:pageopacity="0"
     inkscape:pagecheckerboard="1"
     showgrid="false"
     inkscape:zoom="2.1610697"
     inkscape:cx="230.6728"
     inkscape:cy="142.29064"
     inkscape:window-width="1920"
     inkscape:window-height="1017"
     inkscape:window-x="-32000"
     inkscape:window-y="-32000"
     inkscape:window-maximized="0"
     inkscape:current-layer="g2112"
     fit-margin-top="15"
     fit-margin-left="15"
     fit-margin-right="15"
     fit-margin-bottom="15"
     inkscape:snap-object-midpoints="true" />
  <g
     inkscape:groupmode="layer"
     inkscape:label="Image"
     id="g2112"
     transform="translate(-61.871653,-77.77813)">
    <path
       style="fill:#000000;fill-opacity:1;stroke:none;stroke-width:1px;stroke-linecap:butt;stroke-linejoin:miter;stroke-opacity:1"
       d="M 78.202014,144.0259 H 89.538992 V 129.56547 H 118.45986 V 117.76575 H 89.654676 v -2.7764 H 118.45986 V 103.53669 H 78.202014 Z"
       id="path2206" />
    <path
       id="path2789"
       style="fill:#000000;fill-opacity:1;stroke:none;stroke-width:1px;stroke-linecap:butt;stroke-linejoin:miter;stroke-opacity:1"
       d="m 147.14844,103.65234 -0.23047,40.14258 11.68359,0.23047 v -11.79883 l 11.45313,11.6836 16.77343,-0.11524 -14.11328,-14.57617 h 14.46094 l -0.11523,-25.45117 z m 11.10742,11.6836 h 17.58203 v 2.42968 l -17.58203,0.11524 z" />
    <path
       style="fill:#000000;fill-opacity:1;stroke:none;stroke-width:1px;stroke-linecap:butt;stroke-linejoin:miter;stroke-opacity:1"
       d="m 288.28316,104.92489 h 40.37353 v 11.45266 h -28.80518 v 16.88979 l 28.45813,0.11568 0.23137,11.68403 -40.25785,0.23137 z"
       id="path3597" />
    <path
       style="fill:#000000;fill-opacity:1;stroke:none;stroke-width:1px;stroke-linecap:butt;stroke-linejoin:miter;stroke-opacity:1"
       d="m 357.11482,104.80921 11.56834,0.11568 -0.11568,14.11338 17.4682,0.11569 v -14.22907 h 11.45266 l 0.11569,40.25784 -11.79971,0.34705 0.11568,-14.46043 -17.4682,-0.11568 0.11568,14.22906 -11.33698,0.11569 z"
       id="path3665" />
    <path
       style="fill:#000000;fill-opacity:1;stroke:none;stroke-width:1px;stroke-linecap:butt;stroke-linejoin:miter;stroke-opacity:1"
       d="m 440.52259,105.04058 11.79971,-0.11569 -0.23137,40.48921 -11.91539,-0.23136 z"
       id="path3733"
       sodipodi:nodetypes="ccccc" />
    <rect
       style="opacity:1;fill:#c3c3c3;fill-opacity:1;stroke:none;stroke-width:0.2;stroke-linecap:round;stroke-linejoin:round"
       id="rect4029"
       width="65.245468"
       height="65.245468"
       x="206.61064"
       y="92.77813"
       ry="6.6651535" />
    <path
       style="fill:#000000;fill-opacity:1;stroke:none;stroke-width:1px;stroke-linecap:butt;stroke-linejoin:miter;stroke-opacity:1"
       d="m 219.22014,105.04058 40.48921,-0.23137 v 40.83626 h -40.95194 l 0.11568,-11.10561 29.3836,-0.23137 0.11568,-3.4705 -29.38359,-0.11569 -0.23137,-11.22129 29.61496,-0.23137 v -3.4705 l -29.49928,-0.11569 z"
       id="path3939" />
    <g
       aria-label="le compte est bon"
       id="text7299"
       style="font-size:34.8869px;line-height:1.25;stroke-width:0.872173">
      <path
         d="m 134.64214,185.82214 v -23.44399 h -4.5353 v 23.44399 z"
         style="font-family:Coolvetica;-inkscape-font-specification:'Coolvetica, Normal'"
         id="path8523" />
      <path
         d="m 140.85199,175.56539 c 0.17443,-2.3723 1.67457,-3.76778 3.48869,-3.76778 1.77923,0 3.4538,1.22104 3.52358,3.76778 z m 11.68711,2.86073 c 0,-6.80295 -2.79095,-10.22186 -8.05887,-10.22186 -5.26792,0 -8.30308,3.41891 -8.30308,8.72172 0,6.20987 2.86072,9.34969 8.58217,9.34969 3.66313,0 6.48897,-1.98855 7.53557,-5.51213 h -4.67484 c -0.31398,1.18616 -1.6048,1.91878 -3.07005,1.91878 -2.23276,0 -3.69801,-1.67457 -3.83756,-4.2562 z"
         style="font-family:Coolvetica;-inkscape-font-specification:'Coolvetica, Normal'"
         id="path8525" />
      <path
         d="m 173.40138,179.61228 c -0.17443,1.849 -1.56991,2.86072 -3.34914,2.86072 -1.77923,0 -3.34914,-1.81412 -3.34914,-5.54702 0,-3.73289 1.56991,-4.95394 3.48869,-4.95394 1.70946,0 3.00027,1.04661 3.24448,2.82584 h 4.57019 c -0.2791,-4.04688 -3.31426,-6.59362 -7.77978,-6.59362 -4.8144,0 -8.02399,2.68629 -8.02399,8.82638 0,6.1401 3.20959,9.24503 7.88444,9.24503 4.15154,0 7.39602,-2.68629 7.88444,-6.66339 z"
         style="font-family:Coolvetica;-inkscape-font-specification:'Coolvetica, Normal'"
         id="path8527" />
      <path
         d="m 187.73986,182.473 c -2.75606,0 -4.15154,-1.74434 -4.15154,-5.23303 0,-3.48869 1.39548,-5.19815 4.15154,-5.19815 2.75607,0 4.15155,1.70946 4.15155,5.19815 0,3.48869 -1.39548,5.23303 -4.15155,5.23303 z m 0,3.80267 c 5.3377,0 8.72173,-3.59335 8.72173,-9.0357 0,-5.47725 -3.34914,-9.03571 -8.72173,-9.03571 -5.44235,0 -8.82638,3.59335 -8.82638,9.03571 0,5.33769 3.27937,9.0357 8.82638,9.0357 z"
         style="font-family:Coolvetica;-inkscape-font-specification:'Coolvetica, Normal'"
         id="path8529" />
      <path
         d="m 222.66164,185.82214 v -11.89643 c 0,-3.20959 -2.4072,-5.72145 -5.861,-5.72145 -2.16299,0 -3.69801,0.83728 -4.63996,2.72118 -1.3257,-1.98856 -2.44208,-2.72118 -4.77951,-2.72118 -2.26764,0 -3.87244,0.69774 -5.02371,2.96538 v -2.51185 h -4.2562 v 17.16435 h 4.5353 v -10.43118 c 0,-2.23276 0.94194,-3.34914 2.75606,-3.34914 1.98855,0 2.72118,0.69774 2.72118,3.4538 v 10.32652 h 4.5353 v -10.25675 c 0,-2.09321 1.22104,-3.66312 2.89561,-3.66312 1.6048,0 2.68629,1.46525 2.68629,3.52358 v 10.39629 z"
         style="font-family:Coolvetica;-inkscape-font-specification:'Coolvetica, Normal'"
         id="path8531" />
      <path
         d="m 232.49974,182.40323 c -2.51186,0 -3.80267,-1.84901 -3.80267,-5.58191 0,-2.89561 1.67457,-4.91905 3.83755,-4.91905 2.26765,0 3.87245,2.1281 3.87245,5.19815 0,3.52358 -1.25593,5.30281 -3.90733,5.30281 z m -3.62824,11.54756 v -10.36141 c 1.29081,1.81412 2.96539,2.68629 5.09349,2.68629 4.43063,0 7.04715,-3.66312 7.04715,-8.86127 0,-5.79123 -3.10493,-9.21014 -7.43091,-9.21014 -2.09321,0 -3.69801,0.8024 -4.7795,2.54674 l -0.0349,-2.09321 h -4.36086 v 25.293 z"
         style="font-family:Coolvetica;-inkscape-font-specification:'Coolvetica, Normal'"
         id="path8533" />
      <path
         d="m 252.38523,178.98431 c 0,2.1281 -0.83729,3.34914 -2.65141,3.34914 -1.849,0 -2.61652,-1.25593 -2.61652,-3.41891 v -7.04716 h 9.48924 v -3.20959 h -9.48924 v -4.63996 h -4.46552 v 15.35024 c 0,3.69801 1.98855,6.9076 7.01227,6.9076 4.84928,0 6.94249,-3.24448 6.94249,-6.87272 v -4.88416 h -4.22131 z"
         style="font-family:Coolvetica;-inkscape-font-specification:'Coolvetica, Normal'"
         id="path8535" />
      <path
         d="m 262.74661,175.56539 c 0.17443,-2.3723 1.67457,-3.76778 3.48869,-3.76778 1.77923,0 3.4538,1.22104 3.52358,3.76778 z m 11.68711,2.86073 c 0,-6.80295 -2.79095,-10.22186 -8.05887,-10.22186 -5.26792,0 -8.30308,3.41891 -8.30308,8.72172 0,6.20987 2.86072,9.34969 8.58217,9.34969 3.66313,0 6.48897,-1.98855 7.53557,-5.51213 h -4.67484 c -0.31398,1.18616 -1.6048,1.91878 -3.07005,1.91878 -2.23276,0 -3.69801,-1.67457 -3.83756,-4.2562 z"
         style="font-family:Coolvetica;-inkscape-font-specification:'Coolvetica, Normal'"
         id="path8537" />
      <path
         d="m 288.70238,175.56539 c 0.17443,-2.3723 1.67457,-3.76778 3.48869,-3.76778 1.77923,0 3.4538,1.22104 3.52357,3.76778 z m 11.68711,2.86073 c 0,-6.80295 -2.79095,-10.22186 -8.05888,-10.22186 -5.26792,0 -8.30308,3.41891 -8.30308,8.72172 0,6.20987 2.86073,9.34969 8.58218,9.34969 3.66312,0 6.48896,-1.98855 7.53557,-5.51213 h -4.67485 c -0.31398,1.18616 -1.60479,1.91878 -3.07004,1.91878 -2.23277,0 -3.69801,-1.67457 -3.83756,-4.2562 z"
         style="font-family:Coolvetica;-inkscape-font-specification:'Coolvetica, Normal'"
         id="path8539" />
      <path
         d="m 316.64672,173.85594 c -0.24421,-3.69802 -2.47697,-5.65168 -7.43091,-5.65168 -5.23303,0 -7.22159,2.19787 -7.22159,5.09349 0,1.53502 0.55819,2.86072 2.16299,3.87244 1.22104,0.76751 2.82584,1.25593 5.72145,1.95367 1.46525,0.34887 2.75607,0.73262 2.75607,1.95366 0,1.29082 -1.43036,1.77924 -3.03516,1.77924 -2.19788,0 -3.55847,-0.94195 -3.55847,-2.54675 h -4.67484 c 0.0698,3.48869 3.00027,5.96566 8.26819,5.96566 4.88417,0 7.50069,-2.1281 7.50069,-5.68656 0,-2.23276 -1.01172,-3.41892 -2.82584,-4.15154 -1.3257,-0.52331 -3.17471,-0.90706 -5.12838,-1.46525 -1.849,-0.52331 -2.79095,-0.94195 -2.79095,-1.95367 0,-1.01172 0.97684,-1.43036 2.68629,-1.43036 2.05833,0 2.96539,0.59307 3.2096,2.26765 z"
         style="font-family:Coolvetica;-inkscape-font-specification:'Coolvetica, Normal'"
         id="path8541" />
      <path
         d="m 327.95,178.98431 c 0,2.1281 -0.83729,3.34914 -2.65141,3.34914 -1.849,0 -2.61651,-1.25593 -2.61651,-3.41891 v -7.04716 h 9.48923 v -3.20959 h -9.48923 v -4.63996 h -4.46553 v 15.35024 c 0,3.69801 1.98856,6.9076 7.01227,6.9076 4.84928,0 6.94249,-3.24448 6.94249,-6.87272 v -4.88416 H 327.95 Z"
         style="font-family:Coolvetica;-inkscape-font-specification:'Coolvetica, Normal'"
         id="path8543" />
      <path
         d="m 350.55666,182.57766 c -2.16299,0 -3.83756,-2.02344 -3.83756,-4.91905 0,-3.7329 1.29081,-5.58191 3.80267,-5.58191 2.65141,0 3.90733,1.77924 3.90733,5.30281 0,3.07005 -1.60479,5.19815 -3.87244,5.19815 z m -3.76779,3.24448 0.0349,-2.09321 c 1.08149,1.74434 2.68629,2.54674 4.7795,2.54674 4.32598,0 7.43092,-3.41891 7.43092,-9.21014 0,-5.19815 -2.61652,-8.86127 -7.04716,-8.86127 -2.1281,0 -3.80267,0.87217 -5.09349,2.68629 v -8.5124 h -4.46552 v 23.44399 z"
         style="font-family:Coolvetica;-inkscape-font-specification:'Coolvetica, Normal'"
         id="path8545" />
      <path
         d="m 369.15131,182.473 c -2.75607,0 -4.15154,-1.74434 -4.15154,-5.23303 0,-3.48869 1.39547,-5.19815 4.15154,-5.19815 2.75607,0 4.15154,1.70946 4.15154,5.19815 0,3.48869 -1.39547,5.23303 -4.15154,5.23303 z m 0,3.80267 c 5.3377,0 8.72173,-3.59335 8.72173,-9.0357 0,-5.47725 -3.34915,-9.03571 -8.72173,-9.03571 -5.44236,0 -8.82639,3.59335 -8.82639,9.03571 0,5.33769 3.27937,9.0357 8.82639,9.0357 z"
         style="font-family:Coolvetica;-inkscape-font-specification:'Coolvetica, Normal'"
         id="path8547" />
      <path
         d="m 395.07227,185.82214 v -11.89643 c 0,-3.7329 -2.4072,-5.72145 -5.68657,-5.72145 -2.75606,0 -4.50041,1.04661 -5.54701,2.96538 v -2.51185 h -4.32598 v 17.16435 h 4.5353 v -9.8381 c 0,-2.61652 1.15127,-3.94222 3.52358,-3.94222 2.16298,0 2.9305,0.73262 2.9305,3.38403 v 10.39629 z"
         style="font-family:Coolvetica;-inkscape-font-specification:'Coolvetica, Normal'"
         id="path8549" />
    </g>
    <path
       style="fill:#000000;fill-opacity:1;stroke:none;stroke-width:1.01613px;stroke-linecap:butt;stroke-linejoin:miter;stroke-opacity:1"
       d="m 76.871653,174.04575 h 37.307917 v 7.3459 H 76.929495 Z"
       id="path8033" />
    <path
       style="fill:#000000;fill-opacity:1;stroke:none;stroke-width:1.14695px;stroke-linecap:butt;stroke-linejoin:miter;stroke-opacity:1"
       d="m 409.18314,173.77384 h 47.53299 v 7.3459 h -47.45928 z"
       id="path8033-3" />
  </g>
</svg>
