<?xml version="1.0" standalone="no"?>
<!DOCTYPE svg PUBLIC "-//W3C//DTD SVG 20010904//EN"
 "http://www.w3.org/TR/2001/REC-SVG-20010904/DTD/svg10.dtd">
<svg version="1.0" xmlns="http://www.w3.org/2000/svg"
 width="700.000000pt" height="700.000000pt" viewBox="0 0 700.000000 700.000000"
 preserveAspectRatio="xMidYMid meet">
<metadata>
Created by potrace 1.14, written by Peter Selinger 2001-2017
</metadata>
<g transform="translate(0.000000,700.000000) scale(0.100000,-0.100000)"
fill="#000000" stroke="none">
<path d="M3219 6996 c-2 -2 -35 -7 -74 -10 -38 -4 -113 -14 -165 -22 -52 -8
-106 -17 -120 -19 -134 -21 -387 -90 -545 -147 -485 -176 -906 -443 -1274
-806 -352 -349 -620 -752 -791 -1192 -29 -74 -56 -144 -60 -155 -51 -124 -129
-454 -160 -672 -32 -231 -35 -701 -5 -884 2 -13 6 -46 10 -74 12 -96 16 -121
51 -278 32 -145 124 -449 158 -522 8 -16 26 -59 41 -95 195 -467 566 -965 970
-1299 109 -90 106 -88 185 -146 193 -143 546 -340 715 -401 28 -9 55 -21 60
-25 13 -9 262 -93 350 -118 88 -25 300 -70 357 -77 24 -3 51 -7 60 -10 9 -3
41 -7 70 -10 29 -3 64 -7 76 -9 47 -8 240 -18 357 -18 119 -1 373 11 384 17 3
2 35 7 70 10 74 8 311 49 353 62 9 3 25 6 35 8 180 35 531 165 753 279 585
300 1058 737 1405 1297 59 96 188 341 218 415 9 22 30 74 47 115 90 217 191
600 216 815 3 33 8 69 10 80 24 125 23 708 -1 805 -2 8 -7 42 -10 75 -4 32 -8
62 -10 65 -1 3 -6 28 -9 55 -7 53 -51 259 -66 310 -126 422 -249 692 -465
1020 -459 699 -1172 1219 -1975 1440 -115 32 -327 78 -410 89 -19 2 -55 7 -80
10 -25 4 -63 9 -85 12 -44 7 -640 16 -646 10z"/>
</g>
</svg>
