<svg width="165.1mm" height="148mm" version="1.1" viewBox="0 0 165.1 148" xmlns="http://www.w3.org/2000/svg">
 <g transform="translate(-22.91 -42.37)">
  <path transform="scale(.2646)" d="m199.2 160.2c-62.36 0-112.6 50.2-112.6 112.6v334.1c0 62.36 50.2 112.6 112.6 112.6h398.9c62.36 0 112.6-50.21 112.6-112.6v-334.1c0-62.36-50.2-112.6-112.6-112.6zm200.1 62.46a213.9 212.6 0 0 1 213.9 212.6 213.9 212.6 0 0 1-213.9 212.6 213.9 212.6 0 0 1-213.9-212.6 213.9 212.6 0 0 1 213.9-212.6z" fill="#008400"/>
  <ellipse cx="106.1" cy="115.2" rx="37.73" ry="37.02" fill="#008c00" stroke-width=".1753"/>
 </g>
</svg>
