<?xml version="1.0" encoding="UTF-8" standalone="no"?>
<svg
   width="165.10155mm"
   height="147.95427mm"
   viewBox="0 0 165.10155 147.95427"
   version="1.1"
   id="svg8"
   inkscape:version="1.1 (c68e22c387, 2021-05-23)"
   sodipodi:docname="delete.svg"
   xmlns:inkscape="http://www.inkscape.org/namespaces/inkscape"
   xmlns:sodipodi="http://sodipodi.sourceforge.net/DTD/sodipodi-0.dtd"
   xmlns="http://www.w3.org/2000/svg"
   xmlns:svg="http://www.w3.org/2000/svg"
   xmlns:rdf="http://www.w3.org/1999/02/22-rdf-syntax-ns#"
   xmlns:cc="http://creativecommons.org/ns#"
   xmlns:dc="http://purl.org/dc/elements/1.1/">
  <defs
     id="defs2" />
  <sodipodi:namedview
     id="base"
     pagecolor="#ffffff"
     bordercolor="#666666"
     borderopacity="1.0"
     inkscape:pageopacity="0.0"
     inkscape:pageshadow="2"
     inkscape:zoom="0.175"
     inkscape:cx="1494.2857"
     inkscape:cy="1374.2857"
     inkscape:document-units="px"
     inkscape:current-layer="layer1"
     inkscape:document-rotation="0"
     showgrid="false"
     fit-margin-top="0"
     fit-margin-left="0"
     fit-margin-right="0"
     fit-margin-bottom="0"
     inkscape:window-width="1920"
     inkscape:window-height="1017"
     inkscape:window-x="-8"
     inkscape:window-y="-8"
     inkscape:window-maximized="1"
     inkscape:snap-center="true"
     inkscape:pagecheckerboard="false" />
  <metadata
     id="metadata5">
    <rdf:RDF>
      <cc:Work
         rdf:about="">
        <dc:format>image/svg+xml</dc:format>
        <dc:type
           rdf:resource="http://purl.org/dc/dcmitype/StillImage" />
      </cc:Work>
    </rdf:RDF>
  </metadata>
  <g
     inkscape:label="Calque 1"
     inkscape:groupmode="layer"
     id="layer1"
     transform="translate(-22.91488,-42.374674)">
    <path
       id="rect131"
       style="fill:#cc0000;stroke-width:1.06027"
       d="M 114.10156 0.64257812 C 51.628438 0.64257812 1.3359375 50.937032 1.3359375 113.41016 L 1.3359375 446.64648 C 1.3359375 509.11961 51.628438 559.41406 114.10156 559.41406 L 510.42188 559.41406 C 572.895 559.41406 623.18945 509.11961 623.18945 446.64648 L 623.18945 113.41016 C 623.18945 50.937032 572.895 0.64257812 510.42188 0.64257812 L 114.10156 0.64257812 z M 177.33398 97.693359 C 190.66189 97.492069 204.06878 102.39679 214.43555 112.45508 L 312.26172 207.37109 L 410.08984 112.45508 C 430.82338 92.338493 463.70959 92.834818 483.82617 113.56836 C 503.94276 134.3019 503.44643 167.19006 482.71289 187.30664 L 387.14844 280.02734 L 482.71289 372.75 C 503.44643 392.86658 503.94276 425.75279 483.82617 446.48633 C 463.70959 467.21987 430.82338 467.71815 410.08984 447.60156 L 312.26172 352.68555 L 214.43555 447.60156 C 193.70201 467.71815 160.81385 467.21987 140.69727 446.48633 C 120.58068 425.75279 121.07896 392.86658 141.8125 372.75 L 237.37695 280.02734 L 141.8125 187.30664 C 121.07896 167.19006 120.58068 134.3019 140.69727 113.56836 C 150.75556 103.20159 164.00608 97.89465 177.33398 97.693359 z "
       transform="matrix(0.26458333,0,0,0.26458333,22.91488,42.374674)" />
  </g>
</svg>
